<svg width="64" height="64" viewBox="0 0 64 64" fill="none" xmlns="http://www.w3.org/2000/svg" role="img" aria-labelledby="title desc">
  <title id="title">Markboard logo mark</title>
  <desc id="desc">A folded bookmark page with an indigo pin, styled for the Markboard extension.</desc>
  <rect x="7" y="6" width="50" height="52" rx="12" fill="#F8FAFC"/>
  <rect x="7" y="6" width="50" height="52" rx="12" stroke="#0F172A" stroke-width="3"/>
  <path d="M41 6V20C41 22.2091 42.7909 24 45 24H57" fill="#E0E7FF"/>
  <path d="M41 6V20C41 22.2091 42.7909 24 45 24H57" stroke="#0F172A" stroke-width="3" stroke-linejoin="round"/>
  <path d="M22 19H37" stroke="#0F172A" stroke-width="3" stroke-linecap="round"/>
  <path d="M22 28H42" stroke="#94A3B8" stroke-width="3" stroke-linecap="round"/>
  <path d="M22 37H34" stroke="#94A3B8" stroke-width="3" stroke-linecap="round"/>
  <path d="M22 46V30C22 27.7909 23.7909 26 26 26H38C40.2091 26 42 27.7909 42 30V46L32 40.5L22 46Z" fill="#4F46E5" stroke="#0F172A" stroke-width="3" stroke-linejoin="round"/>
  <path d="M30 32H34" stroke="#C7D2FE" stroke-width="3" stroke-linecap="round"/>
</svg>
